<?xml version="1.0" standalone="no"?>
<!DOCTYPE svg PUBLIC "-//W3C//DTD SVG 20010904//EN"
 "http://www.w3.org/TR/2001/REC-SVG-20010904/DTD/svg10.dtd">
<svg version="1.0" xmlns="http://www.w3.org/2000/svg"
 width="3358.000000pt" height="853.000000pt" viewBox="0 0 3358.000000 853.000000"
 preserveAspectRatio="xMidYMid meet">

<g transform="translate(0.000000,853.000000) scale(0.100000,-0.100000)"
fill="#000000" stroke="none">
<path d="M0 4265 l0 -4265 16790 0 16790 0 0 4265 0 4265 -16790 0 -16790 0 0
-4265z m7616 2941 c309 -67 459 -227 550 -585 39 -154 55 -300 61 -583 l6
-268 -357 0 -356 0 0 258 c0 366 -25 506 -105 585 -58 57 -157 59 -230 3 -42
-32 -83 -112 -100 -193 -19 -88 -19 -259 0 -347 34 -160 91 -239 455 -636 294
-320 363 -401 458 -545 134 -201 217 -398 256 -600 25 -133 28 -170 27 -351
-1 -507 -119 -847 -349 -1006 -130 -90 -288 -134 -517 -144 -319 -15 -546 37
-713 161 -176 132 -296 428 -332 820 -5 61 -10 237 -10 393 l0 282 360 0 360
0 0 -312 c0 -539 32 -681 170 -751 66 -34 122 -31 181 7 72 48 102 132 120
330 19 224 -14 449 -91 613 -82 175 -170 286 -489 616 -224 232 -297 316 -378
437 -119 177 -186 335 -220 520 -23 127 -23 433 1 575 80 480 292 688 746 734
133 13 409 6 496 -13z m7062 -12 c298 -75 496 -283 582 -613 50 -195 60 -319
60 -747 l0 -354 -365 0 -365 0 0 298 c0 439 -20 654 -69 750 -47 93 -139 139
-213 108 -91 -39 -142 -120 -175 -281 -17 -84 -18 -171 -18 -1345 0 -1326 0
-1323 46 -1466 32 -99 81 -152 162 -175 76 -20 165 47 206 157 44 115 53 222
58 676 l5 426 92 7 c50 3 215 5 366 3 l275 -3 0 -435 c-1 -366 -4 -453 -19
-548 -50 -320 -155 -546 -313 -676 -76 -63 -125 -91 -222 -126 -206 -75 -546
-81 -781 -13 -328 94 -531 366 -612 818 l-23 130 0 1205 c0 1108 1 1215 18
1323 81 532 294 806 692 887 172 35 460 33 613 -6z m8220 26 c124 -14 207 -37
307 -85 268 -130 411 -383 467 -825 19 -153 19 -2372 0 -2545 -67 -596 -296
-893 -741 -960 -180 -28 -476 -13 -626 30 -135 40 -246 107 -340 206 -108 114
-181 257 -229 449 -59 236 -59 228 -63 1420 -5 1335 0 1453 79 1700 100 313
294 504 588 581 136 35 391 49 558 29z m6242 -11 c386 -70 612 -336 686 -809
12 -79 17 -205 21 -512 l5 -408 -370 0 -370 0 -5 433 c-5 454 -9 507 -56 611
-42 94 -138 144 -217 111 -88 -36 -138 -116 -171 -266 -16 -78 -18 -176 -21
-1294 -2 -837 0 -1244 8 -1320 24 -242 80 -353 193 -383 75 -21 157 29 200
121 55 115 60 163 64 669 l5 466 101 7 c56 3 224 5 372 3 l270 -3 -1 -420 c0
-334 -4 -445 -17 -541 -47 -337 -152 -566 -322 -702 -159 -128 -340 -182 -610
-182 -586 0 -883 253 -996 850 l-24 125 0 1230 c0 1114 2 1240 17 1332 52 309
134 505 275 653 107 114 205 168 383 212 141 35 433 43 580 17z m-19089 -61
c271 -74 411 -217 508 -520 102 -320 122 -898 46 -1318 -78 -435 -243 -652
-555 -731 -73 -18 -123 -22 -352 -26 l-268 -5 0 -854 0 -854 -380 0 -380 0 0
2163 c0 1190 3 2167 7 2171 4 4 293 6 643 4 l635 -4 96 -26z m2339 23 c0 -12
649 -4292 654 -4314 4 -16 -18 -17 -353 -17 l-357 0 -48 363 c-26 199 -50 372
-53 385 l-5 22 -301 -2 -301 -3 -47 -380 c-26 -209 -48 -381 -48 -382 -1 -2
-165 -3 -366 -3 l-365 0 5 23 c3 12 140 974 305 2137 165 1163 303 2130 306
2148 l6 32 484 0 c275 0 484 -4 484 -9z m4160 -2161 l0 -2170 -375 0 -375 0 0
2170 0 2170 375 0 375 0 0 -2170z m1595 1033 c272 -771 401 -1123 403 -1103 2
16 -2 150 -9 297 -6 147 -14 645 -16 1106 l-5 837 346 0 346 0 0 -2170 0
-2170 -282 2 -282 3 -351 1000 c-438 1249 -479 1364 -483 1360 -2 -1 4 -208
12 -459 10 -285 16 -729 16 -1181 l0 -725 -355 0 -355 0 0 2170 0 2170 308 -2
307 -3 400 -1132z m3205 847 l0 -290 -415 0 -415 0 0 -575 0 -575 385 0 385 0
0 -290 0 -290 -385 0 -385 0 0 -1015 0 -1015 -380 0 -380 0 0 2163 c0 1190 3
2167 7 2170 3 4 361 7 795 7 l788 0 0 -290z m4300 0 l0 -290 -245 0 -245 0 0
-1880 0 -1880 -375 0 -375 0 0 1880 0 1880 -178 0 c-99 0 -213 3 -255 6 l-77
7 0 277 c0 152 3 280 7 283 3 4 397 7 875 7 l868 0 0 -290z m1820 5 l0 -285
-327 0 c-181 0 -358 -3 -395 -7 l-68 -6 0 -623 0 -624 375 0 375 0 0 -280 0
-280 -375 0 -375 0 0 -690 0 -690 410 0 410 0 0 -285 0 -285 -790 0 -790 0 0
2170 0 2170 775 0 775 0 0 -285z m3588 -591 l2 -871 68 -6 c37 -4 147 -7 245
-7 l177 0 0 880 0 880 380 0 380 0 0 -2170 0 -2170 -380 0 -380 0 0 1005 0
1005 -245 0 -245 0 0 -1005 0 -1005 -380 0 -380 0 0 2170 0 2170 378 -2 377
-3 3 -871z m-4056 -4631 c3 -795 -2 -741 81 -771 43 -15 47 -19 47 -49 l0 -33
-220 0 -220 0 0 34 c0 32 2 34 41 39 23 3 51 15 63 27 21 20 21 24 21 643 l0
622 -22 36 c-25 39 -53 56 -113 65 -37 6 -40 9 -40 39 l0 33 118 7 c64 3 126
7 137 9 11 2 39 4 62 5 l42 1 3 -707z m5388 2 c5 -663 6 -701 24 -728 19 -28
35 -35 96 -39 31 -3 35 -6 38 -35 3 -31 3 -31 -50 -38 -29 -3 -107 -7 -173 -8
l-120 -2 -3 48 -3 48 -45 -40 c-72 -63 -127 -85 -214 -86 -62 0 -85 5 -131 28
-183 90 -288 373 -234 632 33 155 130 292 250 350 96 47 236 45 338 -7 l37
-18 0 200 c0 225 -7 258 -60 285 -17 9 -53 19 -81 22 -48 6 -49 7 -49 38 l0
33 128 7 c70 3 134 8 142 10 8 2 35 2 60 2 l45 -2 5 -700z m-8223 664 c99 -37
122 -149 47 -225 -30 -29 -41 -34 -84 -34 -113 0 -169 131 -93 221 40 47 77
58 130 38z m3349 -5 c125 -60 82 -254 -57 -254 -42 0 -53 5 -84 35 -21 22 -36
46 -37 63 -4 80 14 121 67 153 37 23 67 24 111 3z m2161 5 c99 -37 122 -149
47 -225 -30 -29 -41 -34 -84 -34 -113 0 -169 131 -93 221 40 47 77 58 130 38z
m603 -374 l0 -155 120 0 120 0 0 -50 0 -50 -121 0 -121 0 4 -342 c3 -319 4
-346 23 -383 28 -56 77 -73 174 -59 l71 10 0 -37 c0 -36 -2 -38 -56 -58 -114
-43 -206 -52 -277 -27 -51 19 -76 42 -101 96 -20 43 -21 63 -24 422 l-3 377
-77 3 -77 3 -3 48 -3 47 85 0 86 0 0 155 0 155 90 0 90 0 0 -155z m-9329 -152
l47 -21 11 24 c8 19 18 24 45 24 l34 0 6 -62 c3 -35 8 -107 11 -160 l5 -98
-34 0 c-33 0 -35 2 -50 53 -34 118 -107 189 -195 190 -118 2 -183 -106 -132
-220 22 -48 59 -72 206 -132 125 -52 191 -100 224 -166 23 -43 26 -62 25 -140
-1 -103 -15 -144 -71 -206 -47 -52 -104 -84 -176 -99 -80 -16 -147 -5 -233 40
l-72 37 -6 -28 c-5 -26 -9 -29 -46 -29 l-40 0 0 103 c0 56 -3 132 -7 170 l-6
67 36 0 c32 0 37 -3 47 -37 54 -168 171 -267 294 -249 81 13 127 70 128 160 1
102 -41 148 -187 206 -157 62 -223 110 -261 189 -26 53 -30 167 -9 232 22 65
93 139 156 162 61 23 188 18 250 -10z m920 -5 c127 -58 189 -170 204 -367 l8
-91 -292 0 -291 0 0 -44 c0 -72 27 -191 56 -251 49 -100 122 -146 230 -146 49
0 75 5 106 23 37 20 104 92 134 143 10 18 11 18 42 0 18 -11 32 -22 32 -26 0
-19 -87 -133 -124 -164 -204 -167 -499 -99 -613 140 -101 213 -76 505 56 670
44 54 124 112 179 130 73 23 203 15 273 -17z m964 18 c51 -22 75 -68 75 -144
0 -57 -3 -67 -29 -93 -25 -24 -38 -29 -79 -29 -73 0 -102 30 -102 105 0 48 -3
55 -19 55 -26 0 -100 -58 -128 -99 -23 -33 -23 -39 -23 -342 0 -204 4 -316 11
-332 14 -30 48 -47 111 -54 47 -6 48 -7 48 -39 l0 -34 -240 0 -240 0 0 34 c0
32 2 34 41 39 77 10 74 -7 74 402 0 352 -1 364 -21 392 -13 17 -39 33 -68 42
-44 14 -47 17 -44 45 l3 31 147 9 c81 5 154 6 163 3 11 -5 15 -23 15 -74 l1
-68 37 41 c47 53 98 90 148 108 51 19 77 19 119 2z m2194 -3 c109 -35 171
-121 171 -235 0 -56 -4 -71 -25 -96 -41 -49 -127 -48 -175 3 -21 22 -22 30
-16 92 3 37 9 85 12 105 6 34 3 38 -27 54 -113 58 -212 -21 -255 -203 -23 -96
-23 -308 0 -392 44 -163 125 -244 242 -243 83 1 160 53 220 149 10 15 19 30
20 31 4 6 64 -31 64 -39 0 -22 -91 -136 -134 -169 -101 -76 -188 -100 -296
-80 -218 39 -340 223 -340 513 0 172 43 298 138 399 106 114 261 157 401 111z
m873 -10 c134 -60 208 -195 208 -380 l0 -83 -285 0 -285 0 0 -53 c0 -121 39
-241 101 -312 46 -52 104 -76 185 -76 86 0 134 27 198 111 27 36 51 66 55 67
3 2 17 -6 31 -17 l25 -19 -24 -45 c-76 -146 -245 -232 -405 -208 -233 37 -366
226 -366 522 0 247 111 437 293 502 70 25 202 20 269 -9z m2613 8 c44 -20 110
-87 126 -128 l10 -26 62 60 c80 77 134 105 218 111 86 6 145 -19 188 -79 59
-81 64 -111 68 -474 4 -263 8 -335 19 -352 8 -13 34 -28 62 -36 42 -12 47 -17
50 -45 l3 -32 -225 0 -226 0 0 34 c0 32 2 34 41 39 23 3 51 15 63 27 20 20 21
29 21 338 0 354 -5 385 -68 438 -27 23 -38 26 -83 22 -65 -6 -114 -37 -154
-97 l-30 -44 0 -304 c0 -351 1 -355 75 -375 42 -11 45 -15 45 -45 l0 -33 -215
0 -215 0 0 34 c0 32 2 34 41 39 77 10 74 -4 74 375 l0 337 -25 43 c-14 24 -37
50 -52 58 -76 39 -189 -12 -239 -108 -17 -34 -19 -61 -19 -325 0 -339 2 -348
82 -373 44 -14 48 -18 48 -47 l0 -33 -220 0 -220 0 0 35 c0 33 2 35 34 35 22
0 45 9 63 24 l28 24 3 319 c2 175 0 337 -3 360 -8 55 -46 100 -96 113 -36 10
-39 14 -39 45 0 34 1 35 38 35 22 0 94 3 160 7 l122 6 0 -78 0 -79 58 61 c55
58 99 87 152 104 46 14 134 9 175 -10z m2707 -14 c126 -62 197 -200 198 -384
l0 -73 -283 0 c-156 0 -286 -2 -288 -4 -11 -11 11 -179 30 -239 27 -81 91
-157 153 -182 24 -9 69 -17 100 -17 83 0 139 30 193 103 24 33 45 64 47 70 5
15 68 -16 68 -33 0 -23 -64 -109 -116 -157 -151 -138 -404 -126 -543 25 -88
95 -131 224 -131 399 0 169 42 298 131 399 79 90 171 127 300 123 69 -2 96 -8
141 -30z m-6982 -423 c6 -485 2 -462 82 -486 34 -10 38 -14 38 -45 l0 -33
-221 0 -220 0 3 32 c3 29 7 33 45 41 27 5 50 18 63 34 19 25 20 39 20 367 0
321 -1 343 -20 373 -21 35 -56 56 -108 68 -30 6 -33 10 -30 38 l3 32 85 6 c47
3 123 5 170 5 l85 -1 5 -431z m3330 16 c0 -494 -5 -471 103 -510 21 -7 27 -16
27 -40 l0 -30 -220 0 -220 0 0 34 c0 31 2 34 40 40 22 3 49 15 60 26 19 19 20
34 20 376 l0 356 -33 33 c-18 18 -52 38 -75 44 -39 11 -42 14 -42 46 l0 34 88
4 c48 1 124 4 170 5 l82 2 0 -420z m2180 -16 c6 -485 2 -462 82 -486 34 -10
38 -14 38 -45 l0 -33 -221 0 -220 0 3 32 c3 29 7 33 45 41 27 5 50 18 63 34
19 25 20 39 20 367 0 321 -1 343 -20 373 -21 35 -56 56 -108 68 -30 6 -33 10
-30 38 l3 32 85 6 c47 3 123 5 170 5 l85 -1 5 -431z m-6422 394 c-3 -28 -8
-33 -48 -42 -34 -8 -46 -16 -48 -32 -3 -18 150 -476 194 -579 20 -48 6 -78
120 253 47 138 84 260 84 281 0 44 -21 67 -74 82 -31 9 -36 14 -36 39 l0 30
170 0 170 0 0 -29 c0 -22 -6 -30 -25 -35 -44 -11 -93 -64 -115 -124 -38 -100
-247 -685 -267 -747 l-20 -60 -44 0 -44 0 -72 200 c-182 503 -239 650 -260
676 -13 15 -41 34 -63 43 -34 14 -40 20 -40 46 l0 30 211 0 210 0 -3 -32z"/>
<path d="M22625 6636 c-83 -31 -139 -123 -173 -286 -13 -64 -16 -231 -19
-1190 -5 -1312 2 -1511 62 -1653 47 -113 160 -164 260 -118 105 47 144 152
164 432 14 190 14 2274 1 2428 -19 209 -55 314 -126 363 -48 35 -114 44 -169
24z"/>
<path d="M9430 5885 l0 -785 106 0 c128 0 172 12 228 61 53 47 80 108 101 225
22 126 35 491 25 707 -14 289 -48 426 -125 503 -55 55 -118 74 -242 74 l-93 0
0 -785z"/>
<path d="M11911 5955 c-1 -11 -50 -420 -110 -910 -60 -489 -107 -892 -105
-894 3 -3 108 -7 234 -9 173 -3 230 -2 230 7 0 7 -45 348 -100 759 -151 1127
-146 1091 -149 1047z"/>
<path d="M31973 1760 c-99 -22 -165 -132 -194 -320 -14 -90 -6 -255 15 -325
64 -208 227 -277 363 -152 l43 40 0 304 c0 330 -1 334 -59 396 -46 50 -107 71
-168 57z"/>
<path d="M21675 1761 c-16 -4 -40 -13 -52 -19 -55 -30 -108 -141 -120 -252
l-6 -60 193 0 193 0 -7 73 c-4 39 -14 96 -22 124 -28 99 -99 153 -179 134z"/>
<path d="M25695 1755 c-78 -27 -140 -133 -152 -262 l-6 -63 185 0 c102 0 187
2 189 5 3 2 1 44 -3 92 -15 178 -98 267 -213 228z"/>
<path d="M31007 1758 c-80 -21 -157 -157 -157 -279 l0 -49 185 0 185 0 0 58
c0 69 -23 163 -51 208 -35 58 -92 79 -162 62z"/>
</g>
</svg>
